<svg width="22" height="22" viewBox="0 0 22 22" fill="none" xmlns="http://www.w3.org/2000/svg">
<g filter="url(#filter0_d_1432_4653)">
<path d="M9.859 18.718C14.7517 18.718 18.718 14.7517 18.718 9.859C18.718 4.96631 14.7517 1 9.859 1C4.96631 1 1 4.96631 1 9.859C1 14.7517 4.96631 18.718 9.859 18.718Z" fill="url(#paint0_linear_1432_4653)"/>
<path d="M7.44003 14.7057C7.47803 15.0207 7.361 15.1888 7.082 15.2198H5.41306C5.27392 15.1939 5.14357 15.1332 5.03427 15.0433C4.92497 14.9534 4.84029 14.8373 4.78806 14.7057C4.1263 13.1776 3.79144 11.528 3.80502 9.86276C3.80502 9.59943 3.81276 9.33909 3.8281 9.08176C3.8821 8.68176 4.05304 8.46676 4.35104 8.42676H6.41806C6.49855 8.43138 6.57724 8.45216 6.64951 8.48788C6.72178 8.52361 6.78617 8.57354 6.83872 8.63467C6.89126 8.69581 6.93095 8.7669 6.95541 8.84372C6.97988 8.92054 6.98857 9.00149 6.98105 9.08176C6.97372 9.33909 6.97006 9.59943 6.97006 9.86276C6.95948 11.4889 7.11762 13.1118 7.44003 14.7057Z" fill="url(#paint1_linear_1432_4653)"/>
<path d="M16.4291 10.4909C16.4045 10.729 16.3036 10.9528 16.1414 11.1289C15.9792 11.3049 15.7644 11.4239 15.5291 11.4679H15.411C15.744 11.5139 15.881 11.7559 15.829 12.2069L15.812 12.2939C15.637 12.9219 15.312 13.2569 14.817 13.3189H14.4301C14.7391 13.3579 14.845 13.5629 14.755 13.9429L14.704 14.0959C14.6377 14.3112 14.5117 14.5032 14.3405 14.6496C14.1693 14.796 13.96 14.8908 13.7371 14.9229H9.24806C8.94806 14.9139 8.93999 14.9069 8.30299 14.5639C8.18964 14.5034 8.09206 14.4171 8.01808 14.312C7.9441 14.207 7.89587 14.086 7.87709 13.9589C7.70459 12.6008 7.62003 11.2329 7.62404 9.86389C7.62404 9.81389 7.62404 9.76421 7.62404 9.71487C7.62624 9.5636 7.66582 9.41525 7.73927 9.28299C7.81273 9.15073 7.9178 9.03869 8.04506 8.95688C8.21506 8.80388 8.21502 8.80389 9.80202 5.99689C10.0304 5.5874 10.1734 5.13588 10.2224 4.66959C10.2714 4.20329 10.2254 3.73188 10.0871 3.28387C10.0921 3.14087 10.111 3.0839 10.287 3.0459C12.073 3.5459 11.9931 4.87488 11.8871 6.55188C11.8827 6.63313 11.8944 6.71446 11.9218 6.79111C11.9491 6.86776 11.9913 6.93819 12.0462 6.99832C12.101 7.05845 12.1672 7.10707 12.241 7.14133C12.3148 7.17559 12.3948 7.19481 12.4761 7.19788H15.4881C16.3651 7.31688 16.4161 8.66588 15.8991 9.07388C15.8239 9.12611 15.7438 9.17099 15.66 9.20789H15.76C16.611 9.33089 16.428 10.4809 16.426 10.4919" fill="url(#paint2_linear_1432_4653)"/>
<path opacity="0.9" d="M4.10307 12.7004C3.60252 12.0668 3.2393 11.3361 3.03654 10.5545C2.83378 9.77302 2.79591 8.95783 2.92533 8.16087C3.05476 7.36391 3.34871 6.6026 3.78837 5.9254C4.22803 5.24819 4.80374 4.66993 5.47904 4.22737C6.87005 3.30266 8.53097 2.87095 10.1962 3.00129C11.8614 3.13163 13.4349 3.81649 14.6651 4.94636C12.7129 5.60669 10.8619 6.53489 9.16508 7.70436C7.1959 9.05762 5.48206 10.7491 4.10307 12.7004Z" fill="url(#paint3_radial_1432_4653)" style="mix-blend-mode:screen"/>
<path opacity="0.6" d="M17.465 6.10446C16.3139 4.23688 14.4882 2.88399 12.3664 2.32632C10.2447 1.76865 7.98968 2.04898 6.06907 3.10922C4.14845 4.16945 2.70962 5.92822 2.05088 8.02081C1.39214 10.1134 1.56403 12.3792 2.53098 14.3485C1.92453 13.3645 1.52416 12.2677 1.3541 11.1244C1.18404 9.9812 1.24785 8.81536 1.54166 7.69751C1.83547 6.57965 2.35318 5.53306 3.06339 4.62118C3.7736 3.7093 4.66155 2.9511 5.67344 2.39251C6.68532 1.83392 7.80009 1.48657 8.95017 1.37152C10.1003 1.25646 11.2617 1.37608 12.3642 1.72314C13.4667 2.0702 14.4872 2.63748 15.364 3.39059C16.2408 4.1437 16.9556 5.06696 17.465 6.10446Z" fill="url(#paint4_linear_1432_4653)" style="mix-blend-mode:screen"/>
</g>
<defs>
<filter id="filter0_d_1432_4653" x="0" y="0" width="21.718" height="21.7178" filterUnits="userSpaceOnUse" color-interpolation-filters="sRGB">
<feFlood flood-opacity="0" result="BackgroundImageFix"/>
<feColorMatrix in="SourceAlpha" type="matrix" values="0 0 0 0 0 0 0 0 0 0 0 0 0 0 0 0 0 0 127 0" result="hardAlpha"/>
<feOffset dx="1" dy="1"/>
<feGaussianBlur stdDeviation="1"/>
<feComposite in2="hardAlpha" operator="out"/>
<feColorMatrix type="matrix" values="0 0 0 0 0.470833 0 0 0 0 0.470833 0 0 0 0 0.470833 0 0 0 0.5 0"/>
<feBlend mode="multiply" in2="BackgroundImageFix" result="effect1_dropShadow_1432_4653"/>
<feBlend mode="normal" in="SourceGraphic" in2="effect1_dropShadow_1432_4653" result="shape"/>
</filter>
<linearGradient id="paint0_linear_1432_4653" x1="5.30547" y1="1.77959" x2="14.4657" y2="18.0447" gradientUnits="userSpaceOnUse">
<stop stop-color="#009973"/>
<stop offset="0.996" stop-color="#008060"/>
</linearGradient>
<linearGradient id="paint1_linear_1432_4653" x1="3.83377" y1="6.1511" x2="11.936" y2="12.6504" gradientUnits="userSpaceOnUse">
<stop stop-color="white"/>
<stop offset="0.198" stop-color="#FCFBFD"/>
<stop offset="0.36" stop-color="#F6F1F8"/>
<stop offset="0.51" stop-color="#EAE0EF"/>
<stop offset="0.653" stop-color="#DAC8E3"/>
<stop offset="0.79" stop-color="#C5A8D4"/>
<stop offset="0.922" stop-color="#AC83C1"/>
<stop offset="1" stop-color="#9B69B5"/>
</linearGradient>
<linearGradient id="paint2_linear_1432_4653" x1="9.58194" y1="4.09107" x2="16.0429" y2="14.0371" gradientUnits="userSpaceOnUse">
<stop stop-color="white"/>
<stop offset="0.198" stop-color="#FCFBFD"/>
<stop offset="0.36" stop-color="#F6F1F8"/>
<stop offset="0.51" stop-color="#EAE0EF"/>
<stop offset="0.653" stop-color="#DAC8E3"/>
<stop offset="0.79" stop-color="#C5A8D4"/>
<stop offset="0.922" stop-color="#AC83C1"/>
<stop offset="1" stop-color="#9B69B5"/>
</linearGradient>
<radialGradient id="paint3_radial_1432_4653" cx="0" cy="0" r="1" gradientUnits="userSpaceOnUse" gradientTransform="translate(-176.544 -36.8863) scale(9.59732 8.64551)">
<stop stop-color="#CCEBE3"/>
<stop offset="1" stop-color="#008060"/>
</radialGradient>
<linearGradient id="paint4_linear_1432_4653" x1="14.5645" y1="2.07121" x2="3.83141" y2="13.9525" gradientUnits="userSpaceOnUse">
<stop stop-color="#231F20"/>
<stop offset="0.536" stop-color="white"/>
<stop offset="1" stop-color="#231F20"/>
</linearGradient>
</defs>
</svg>
